<?xml version="1.0" encoding="UTF-8"?>
<!DOCTYPE svg PUBLIC "-//W3C//DTD SVG 1.1//EN" "http://www.w3.org/Graphics/SVG/1.1/DTD/svg11.dtd">
<svg xmlns="http://www.w3.org/2000/svg" version="1.1" width="32px" height="32px" style="shape-rendering:geometricPrecision; text-rendering:geometricPrecision; image-rendering:optimizeQuality; fill-rule:evenodd; clip-rule:evenodd" xmlns:xlink="http://www.w3.org/1999/xlink">
<g><path style="opacity:1" fill="#455a63" d="M 3.5,2.5 C 6.30354,1.36216 9.30354,1.19549 12.5,2C 9.51838,2.49796 6.51838,2.66463 3.5,2.5 Z"/></g>
<g><path style="opacity:0.907" fill="#4b5c64" d="M 18.5,8.5 C 18.5,8.16667 18.5,7.83333 18.5,7.5C 18.6309,6.62356 18.2975,5.95689 17.5,5.5C 16.5832,6.12723 15.5832,6.46056 14.5,6.5C 13.5489,5.08134 13.2155,3.41467 13.5,1.5C 15.8333,1.5 18.1667,1.5 20.5,1.5C 20.6621,3.5273 20.4955,5.5273 20,7.5C 19.6174,8.05596 19.1174,8.38929 18.5,8.5 Z"/></g>
<g><path style="opacity:1" fill="#455a63" d="M 0.5,4.5 C 2.28841,3.37753 4.28841,3.21086 6.5,4C 4.5273,4.49546 2.5273,4.66212 0.5,4.5 Z"/></g>
<g><path style="opacity:1" fill="#cab290" d="M 18.5,7.5 C 17.1667,7.5 15.8333,7.5 14.5,7.5C 14.5,7.16667 14.5,6.83333 14.5,6.5C 15.5832,6.46056 16.5832,6.12723 17.5,5.5C 18.2975,5.95689 18.6309,6.62356 18.5,7.5 Z"/></g>
<g><path style="opacity:0.153" fill="#566972" d="M 14.5,7.5 C 15.8333,7.5 17.1667,7.5 18.5,7.5C 18.5,7.83333 18.5,8.16667 18.5,8.5C 17.7611,8.36899 17.0944,8.53566 16.5,9C 18.1321,10.8195 20.1321,11.9862 22.5,12.5C 22.5,13.1667 22.5,13.8333 22.5,14.5C 22.5,15.1667 22.1667,15.5 21.5,15.5C 20.8333,15.5 20.1667,15.5 19.5,15.5C 18.1667,15.1667 16.8333,14.8333 15.5,14.5C 14.1667,14.8333 14.1667,15.1667 15.5,15.5C 16.7095,15.9321 17.7095,16.5987 18.5,17.5C 16.2856,17.7093 14.619,16.876 13.5,15C 14.3553,13.5491 14.5219,12.0491 14,10.5C 16.1734,13.277 16.6734,13.1103 15.5,10C 13.735,9.36026 12.0683,9.52692 10.5,10.5C 10.5,9.83333 10.5,9.16667 10.5,8.5C 11.7079,7.76589 13.0413,7.43255 14.5,7.5 Z"/></g>
<g><path style="opacity:1" fill="#455a63" d="M 1.5,10.5 C 3.28841,9.37753 5.28841,9.21086 7.5,10C 5.5273,10.4955 3.5273,10.6621 1.5,10.5 Z"/></g>
<g><path style="opacity:1" fill="#c6d0d4" d="M 18.5,17.5 C 19.2052,20.2281 19.8719,23.0614 20.5,26C 20.1667,26.1667 19.8333,26.3333 19.5,26.5C 18.7078,24.5352 18.0412,22.5352 17.5,20.5C 17.0431,19.7025 16.3764,19.3691 15.5,19.5C 9.66744,19.0848 8.00077,16.0848 10.5,10.5C 12.0683,9.52692 13.735,9.36026 15.5,10C 16.6734,13.1103 16.1734,13.277 14,10.5C 14.5219,12.0491 14.3553,13.5491 13.5,15C 14.619,16.876 16.2856,17.7093 18.5,17.5 Z"/></g>
<g><path style="opacity:0.955" fill="#79caee" d="M 22.5,14.5 C 23.1174,14.6107 23.6174,14.944 24,15.5C 24.4974,18.146 24.6641,20.8127 24.5,23.5C 23.8826,23.6107 23.3826,23.944 23,24.5C 22.8171,21.6353 22.3171,18.9686 21.5,16.5C 21.5,16.1667 21.5,15.8333 21.5,15.5C 22.1667,15.5 22.5,15.1667 22.5,14.5 Z"/></g>
<g><path style="opacity:0.939" fill="#516671" d="M 10.5,8.5 C 10.5,9.16667 10.5,9.83333 10.5,10.5C 8.00077,16.0848 9.66744,19.0848 15.5,19.5C 12.6085,20.4025 9.60853,20.7359 6.5,20.5C 6.16667,20.5 5.83333,20.5 5.5,20.5C 5.88066,19.0689 6.88066,18.2355 8.5,18C 7.39478,14.4772 8.06145,11.3105 10.5,8.5 Z"/></g>
<g><path style="opacity:1" fill="#96d1ed" d="M 25.5,23.5 C 26.791,23.2627 27.791,23.596 28.5,24.5C 24.5388,27.4346 23.5388,27.1013 25.5,23.5 Z"/></g>
<g><path style="opacity:0.923" fill="#506570" d="M 15.5,15.5 C 15.5,15.1667 15.5,14.8333 15.5,14.5C 16.8333,14.8333 18.1667,15.1667 19.5,15.5C 20.2411,18.4133 20.7411,21.4133 21,24.5C 21.4974,21.854 21.6641,19.1873 21.5,16.5C 22.3171,18.9686 22.8171,21.6353 23,24.5C 23.3826,23.944 23.8826,23.6107 24.5,23.5C 24.8333,23.5 25.1667,23.5 25.5,23.5C 23.5388,27.1013 24.5388,27.4346 28.5,24.5C 29.9689,29.2674 28.3022,30.6007 23.5,28.5C 21.6965,27.838 19.6965,27.5046 17.5,27.5C 13.9116,27.6073 10.745,28.6073 8,30.5C 5.83048,29.4775 3.66381,28.4775 1.5,27.5C 1.16628,24.509 2.16628,22.1757 4.5,20.5C 4.12312,22.258 3.45645,23.9246 2.5,25.5C 6.45894,26.6599 10.4589,26.8265 14.5,26C 13.6198,24.6439 13.2865,23.1439 13.5,21.5C 10.9407,21.8016 8.60737,21.4682 6.5,20.5C 9.60853,20.7359 12.6085,20.4025 15.5,19.5C 16.3764,19.3691 17.0431,19.7025 17.5,20.5C 18.0412,22.5352 18.7078,24.5352 19.5,26.5C 19.8333,26.3333 20.1667,26.1667 20.5,26C 19.8719,23.0614 19.2052,20.2281 18.5,17.5C 17.7095,16.5987 16.7095,15.9321 15.5,15.5 Z M 15.5,20.5 C 16.6129,21.9464 16.7796,23.6131 16,25.5C 14.4807,23.8608 14.314,22.1942 15.5,20.5 Z"/></g>
<g><path style="opacity:1" fill="#86cded" d="M 4.5,20.5 C 4.83333,20.5 5.16667,20.5 5.5,20.5C 5.83333,20.5 6.16667,20.5 6.5,20.5C 8.60737,21.4682 10.9407,21.8016 13.5,21.5C 13.2865,23.1439 13.6198,24.6439 14.5,26C 10.4589,26.8265 6.45894,26.6599 2.5,25.5C 3.45645,23.9246 4.12312,22.258 4.5,20.5 Z"/></g>
<g><path style="opacity:0.915" fill="#475d67" d="M 23.5,28.5 C 28.3022,30.6007 29.9689,29.2674 28.5,24.5C 27.791,23.596 26.791,23.2627 25.5,23.5C 25.1667,23.5 24.8333,23.5 24.5,23.5C 24.6641,20.8127 24.4974,18.146 24,15.5C 23.6174,14.944 23.1174,14.6107 22.5,14.5C 22.5,13.8333 22.5,13.1667 22.5,12.5C 23.7791,11.032 25.4458,10.3653 27.5,10.5C 26.2535,13.7332 25.7535,17.0665 26,20.5C 27.049,22.1066 28.549,22.7733 30.5,22.5C 30.7683,25.1194 30.435,27.6194 29.5,30C 25.1667,30.6667 20.8333,30.6667 16.5,30C 19.0356,29.8138 21.369,29.3138 23.5,28.5 Z"/></g>
<g><path style="opacity:1" fill="#a4d0e5" d="M 24.5,11.5 C 26.337,11.6395 26.6704,12.3061 25.5,13.5C 24.7025,13.0431 24.3691,12.3764 24.5,11.5 Z"/></g>
</svg>
